<svg version="1.1" xmlns="http://www.w3.org/2000/svg" xmlns:xlink="http://www.w3.org/1999/xlink" role="img" width="425" height="53" viewbox="0 0 425 53"><title>FETCH-CLIENT</title><desc>Generated by logo.svg, https://github.com/bubkoo/logo.svg</desc><path fill="#6af72e" d="M16 44L16 32L31 32L31 23L16 23L16 20L31 20L31 11L4 11L4 44L16 44M1 47L1 8L34 8L34 35L19 35L19 47L1 47ZM67 44L67 35L55 35L55 32L67 32L67 23L55 23L55 20L67 20L67 11L40 11L40 44L67 44M37 47L37 8L70 8L70 47L37 47ZM94 44L94 20L100 20L100 11L76 11L76 20L82 20L82 44L94 44M79 47L79 23L73 23L73 8L103 8L103 23L97 23L97 47L79 47ZM136 44L136 29L124 29L124 35L121 35L121 20L124 20L124 26L136 26L136 11L109 11L109 44L136 44M106 47L106 8L139 8L139 47L106 47ZM172 44L172 11L160 11L160 23L157 23L157 11L145 11L145 44L157 44L157 32L160 32L160 44L172 44M142 47L142 8L175 8L175 47L142 47ZM205 29L205 23L181 23L181 29L205 29M178 32L178 20L208 20L208 32L178 32ZM241 44L241 29L229 29L229 35L226 35L226 20L229 20L229 26L241 26L241 11L214 11L214 44L241 44M211 47L211 8L244 8L244 47L211 47ZM277 44L277 35L262 35L262 11L250 11L250 44L277 44M247 47L247 8L265 8L265 32L280 32L280 47L247 47ZM310 44L310 35L304 35L304 20L310 20L310 11L286 11L286 20L292 20L292 35L286 35L286 44L310 44M283 47L283 32L289 32L289 23L283 23L283 8L313 8L313 23L307 23L307 32L313 32L313 47L283 47ZM346 44L346 35L334 35L334 32L346 32L346 23L334 23L334 20L346 20L346 11L319 11L319 44L346 44M316 47L316 8L349 8L349 47L316 47ZM385 44L385 11L376 11L376 23L373 23L373 11L355 11L355 44L364 44L364 32L367 32L367 44L385 44M352 47L352 8L388 8L388 47L352 47ZM412 44L412 20L418 20L418 11L394 11L394 20L400 20L400 44L412 44M397 47L397 23L391 23L391 8L421 8L421 23L415 23L415 47L397 47Z"></path></svg>