<svg version="1.1" xmlns="http://www.w3.org/2000/svg" xmlns:xlink="http://www.w3.org/1999/xlink" role="img" width="284" height="36" viewbox="0 0 284 36"><title>FETCH-CLIENT</title><desc>Generated by logo.svg, https://github.com/bubkoo/logo.svg</desc><path fill="#6af72e" d="M11 30L11 22L21 22L21 16L11 16L11 14L21 14L21 8L3 8L3 30L11 30M1 32L1 6L23 6L23 24L13 24L13 32L1 32ZM45 30L45 24L37 24L37 22L45 22L45 16L37 16L37 14L45 14L45 8L27 8L27 30L45 30M25 32L25 6L47 6L47 32L25 32ZM63 30L63 14L67 14L67 8L51 8L51 14L55 14L55 30L63 30M53 32L53 16L49 16L49 6L69 6L69 16L65 16L65 32L53 32ZM91 30L91 20L83 20L83 24L81 24L81 14L83 14L83 18L91 18L91 8L73 8L73 30L91 30M71 32L71 6L93 6L93 32L71 32ZM115 30L115 8L107 8L107 16L105 16L105 8L97 8L97 30L105 30L105 22L107 22L107 30L115 30M95 32L95 6L117 6L117 32L95 32ZM137 20L137 16L121 16L121 20L137 20M119 22L119 14L139 14L139 22L119 22ZM161 30L161 20L153 20L153 24L151 24L151 14L153 14L153 18L161 18L161 8L143 8L143 30L161 30M141 32L141 6L163 6L163 32L141 32ZM185 30L185 24L175 24L175 8L167 8L167 30L185 30M165 32L165 6L177 6L177 22L187 22L187 32L165 32ZM207 30L207 24L203 24L203 14L207 14L207 8L191 8L191 14L195 14L195 24L191 24L191 30L207 30M189 32L189 22L193 22L193 16L189 16L189 6L209 6L209 16L205 16L205 22L209 22L209 32L189 32ZM231 30L231 24L223 24L223 22L231 22L231 16L223 16L223 14L231 14L231 8L213 8L213 30L231 30M211 32L211 6L233 6L233 32L211 32ZM257 30L257 8L251 8L251 16L249 16L249 8L237 8L237 30L243 30L243 22L245 22L245 30L257 30M235 32L235 6L259 6L259 32L235 32ZM275 30L275 14L279 14L279 8L263 8L263 14L267 14L267 30L275 30M265 32L265 16L261 16L261 6L281 6L281 16L277 16L277 32L265 32Z"></path></svg>